<?xml version="1.0" encoding="UTF-8" standalone="no"?>
<!DOCTYPE svg PUBLIC "-//W3C//DTD SVG 1.1//EN"
 "http://www.w3.org/Graphics/SVG/1.1/DTD/svg11.dtd">
<!-- Generated by graphviz version 2.44.0 (0)
 -->
<!-- Pages: 1 -->
<svg width="2413pt" height="404pt"
 viewBox="0.00 0.00 2412.73 404.00" xmlns="http://www.w3.org/2000/svg" xmlns:xlink="http://www.w3.org/1999/xlink">
<g id="graph0" class="graph" transform="scale(1 1) rotate(0) translate(4 400)">
<polygon fill="white" stroke="transparent" points="-4,4 -4,-400 2408.73,-400 2408.73,4 -4,4"/>
<!-- [root] aws_instance.back_east (expand) -->
<g id="node1" class="node">
<title>[root] aws_instance.back_east (expand)</title>
<polygon fill="none" stroke="black" points="921.23,-180 757.23,-180 757.23,-144 921.23,-144 921.23,-180"/>
<text text-anchor="middle" x="839.23" y="-158.3" font-family="Times-Roman" font-size="14.00">aws_instance.back_east</text>
</g>
<!-- [root] data.aws_ami.myami_east (expand) -->
<g id="node5" class="node">
<title>[root] data.aws_ami.myami_east (expand)</title>
<polygon fill="none" stroke="black" points="752.23,-108 574.23,-108 574.23,-72 752.23,-72 752.23,-108"/>
<text text-anchor="middle" x="663.23" y="-86.3" font-family="Times-Roman" font-size="14.00">data.aws_ami.myami_east</text>
</g>
<!-- [root] aws_instance.back_east (expand)&#45;&gt;[root] data.aws_ami.myami_east (expand) -->
<g id="edge1" class="edge">
<title>[root] aws_instance.back_east (expand)&#45;&gt;[root] data.aws_ami.myami_east (expand)</title>
<path fill="none" stroke="black" d="M796.18,-143.88C771.91,-134.22 741.4,-122.09 715.73,-111.88"/>
<polygon fill="black" stroke="black" points="716.73,-108.51 706.15,-108.07 714.15,-115.02 716.73,-108.51"/>
</g>
<!-- [root] data.aws_availability_zones.zone_east (expand) -->
<g id="node7" class="node">
<title>[root] data.aws_availability_zones.zone_east (expand)</title>
<polygon fill="none" stroke="black" points="1020.23,-108 770.23,-108 770.23,-72 1020.23,-72 1020.23,-108"/>
<text text-anchor="middle" x="895.23" y="-86.3" font-family="Times-Roman" font-size="14.00">data.aws_availability_zones.zone_east</text>
</g>
<!-- [root] aws_instance.back_east (expand)&#45;&gt;[root] data.aws_availability_zones.zone_east (expand) -->
<g id="edge2" class="edge">
<title>[root] aws_instance.back_east (expand)&#45;&gt;[root] data.aws_availability_zones.zone_east (expand)</title>
<path fill="none" stroke="black" d="M853.08,-143.7C859.72,-135.39 867.81,-125.28 875.12,-116.14"/>
<polygon fill="black" stroke="black" points="878.04,-118.1 881.55,-108.1 872.57,-113.73 878.04,-118.1"/>
</g>
<!-- [root] var.ec2_instance_count -->
<g id="node11" class="node">
<title>[root] var.ec2_instance_count</title>
<polygon fill="none" stroke="black" points="1190.23,-108 1038.23,-108 1038.23,-72 1196.23,-72 1196.23,-102 1190.23,-108"/>
<polyline fill="none" stroke="black" points="1190.23,-108 1190.23,-102 "/>
<polyline fill="none" stroke="black" points="1196.23,-102 1190.23,-102 "/>
<text text-anchor="middle" x="1117.23" y="-86.3" font-family="Times-Roman" font-size="14.00">var.ec2_instance_count</text>
</g>
<!-- [root] aws_instance.back_east (expand)&#45;&gt;[root] var.ec2_instance_count -->
<g id="edge4" class="edge">
<title>[root] aws_instance.back_east (expand)&#45;&gt;[root] var.ec2_instance_count</title>
<path fill="none" stroke="black" d="M906.89,-143.97C946.91,-133.89 997.76,-121.08 1039.44,-110.59"/>
<polygon fill="black" stroke="black" points="1040.44,-113.95 1049.28,-108.11 1038.73,-107.16 1040.44,-113.95"/>
</g>
<!-- [root] var.ec2_instance_type -->
<g id="node13" class="node">
<title>[root] var.ec2_instance_type</title>
<polygon fill="none" stroke="black" points="1359.73,-108 1214.73,-108 1214.73,-72 1365.73,-72 1365.73,-102 1359.73,-108"/>
<polyline fill="none" stroke="black" points="1359.73,-108 1359.73,-102 "/>
<polyline fill="none" stroke="black" points="1365.73,-102 1359.73,-102 "/>
<text text-anchor="middle" x="1290.23" y="-86.3" font-family="Times-Roman" font-size="14.00">var.ec2_instance_type</text>
</g>
<!-- [root] aws_instance.back_east (expand)&#45;&gt;[root] var.ec2_instance_type -->
<g id="edge5" class="edge">
<title>[root] aws_instance.back_east (expand)&#45;&gt;[root] var.ec2_instance_type</title>
<path fill="none" stroke="black" d="M921.56,-150.36C993.55,-140.76 1101.13,-125.71 1204.72,-108.04"/>
<polygon fill="black" stroke="black" points="1205.47,-111.46 1214.73,-106.32 1204.28,-104.56 1205.47,-111.46"/>
</g>
<!-- [root] local.backend_east_name (expand) -->
<g id="node16" class="node">
<title>[root] local.backend_east_name (expand)</title>
<ellipse fill="none" stroke="black" cx="383.23" cy="-90" rx="172.77" ry="18"/>
<text text-anchor="middle" x="383.23" y="-86.3" font-family="Times-Roman" font-size="14.00">[root] local.backend_east_name (expand)</text>
</g>
<!-- [root] aws_instance.back_east (expand)&#45;&gt;[root] local.backend_east_name (expand) -->
<g id="edge3" class="edge">
<title>[root] aws_instance.back_east (expand)&#45;&gt;[root] local.backend_east_name (expand)</title>
<path fill="none" stroke="black" d="M757,-147.6C749.3,-146.37 741.62,-145.16 734.23,-144 651.68,-131.08 558.12,-116.98 488.36,-106.58"/>
<polygon fill="black" stroke="black" points="488.65,-103.08 478.25,-105.07 487.62,-110 488.65,-103.08"/>
</g>
<!-- [root] aws_instance.back_west (expand) -->
<g id="node2" class="node">
<title>[root] aws_instance.back_west (expand)</title>
<polygon fill="none" stroke="black" points="1641.23,-180 1475.23,-180 1475.23,-144 1641.23,-144 1641.23,-180"/>
<text text-anchor="middle" x="1558.23" y="-158.3" font-family="Times-Roman" font-size="14.00">aws_instance.back_west</text>
</g>
<!-- [root] data.aws_ami.myami_west (expand) -->
<g id="node6" class="node">
<title>[root] data.aws_ami.myami_west (expand)</title>
<polygon fill="none" stroke="black" points="2201.23,-108 2021.23,-108 2021.23,-72 2201.23,-72 2201.23,-108"/>
<text text-anchor="middle" x="2111.23" y="-86.3" font-family="Times-Roman" font-size="14.00">data.aws_ami.myami_west</text>
</g>
<!-- [root] aws_instance.back_west (expand)&#45;&gt;[root] data.aws_ami.myami_west (expand) -->
<g id="edge6" class="edge">
<title>[root] aws_instance.back_west (expand)&#45;&gt;[root] data.aws_ami.myami_west (expand)</title>
<path fill="none" stroke="black" d="M1641.25,-152.66C1730.19,-143.43 1875.71,-127.43 2011.02,-108.13"/>
<polygon fill="black" stroke="black" points="2011.76,-111.56 2021.16,-106.68 2010.76,-104.63 2011.76,-111.56"/>
</g>
<!-- [root] data.aws_availability_zones.zone_west (expand) -->
<g id="node8" class="node">
<title>[root] data.aws_availability_zones.zone_west (expand)</title>
<polygon fill="none" stroke="black" points="2003.23,-108 1751.23,-108 1751.23,-72 2003.23,-72 2003.23,-108"/>
<text text-anchor="middle" x="1877.23" y="-86.3" font-family="Times-Roman" font-size="14.00">data.aws_availability_zones.zone_west</text>
</g>
<!-- [root] aws_instance.back_west (expand)&#45;&gt;[root] data.aws_availability_zones.zone_west (expand) -->
<g id="edge7" class="edge">
<title>[root] aws_instance.back_west (expand)&#45;&gt;[root] data.aws_availability_zones.zone_west (expand)</title>
<path fill="none" stroke="black" d="M1635.86,-143.97C1682.36,-133.76 1741.6,-120.76 1789.75,-110.2"/>
<polygon fill="black" stroke="black" points="1790.52,-113.61 1799.54,-108.05 1789.02,-106.77 1790.52,-113.61"/>
</g>
<!-- [root] aws_instance.back_west (expand)&#45;&gt;[root] var.ec2_instance_count -->
<g id="edge9" class="edge">
<title>[root] aws_instance.back_west (expand)&#45;&gt;[root] var.ec2_instance_count</title>
<path fill="none" stroke="black" d="M1475.23,-149.44C1403.81,-139.27 1298.07,-123.68 1206.23,-108 1206.13,-107.98 1206.03,-107.97 1205.93,-107.95"/>
<polygon fill="black" stroke="black" points="1206.76,-104.54 1196.3,-106.27 1205.55,-111.44 1206.76,-104.54"/>
</g>
<!-- [root] aws_instance.back_west (expand)&#45;&gt;[root] var.ec2_instance_type -->
<g id="edge10" class="edge">
<title>[root] aws_instance.back_west (expand)&#45;&gt;[root] var.ec2_instance_type</title>
<path fill="none" stroke="black" d="M1493.02,-143.97C1454.51,-133.91 1405.61,-121.14 1365.48,-110.65"/>
<polygon fill="black" stroke="black" points="1366.3,-107.25 1355.74,-108.11 1364.54,-114.02 1366.3,-107.25"/>
</g>
<!-- [root] var.multi&#45;region&#45;deployment -->
<g id="node14" class="node">
<title>[root] var.multi&#45;region&#45;deployment</title>
<polygon fill="none" stroke="black" points="2398.73,-108 2219.73,-108 2219.73,-72 2404.73,-72 2404.73,-102 2398.73,-108"/>
<polyline fill="none" stroke="black" points="2398.73,-108 2398.73,-102 "/>
<polyline fill="none" stroke="black" points="2404.73,-102 2398.73,-102 "/>
<text text-anchor="middle" x="2312.23" y="-86.3" font-family="Times-Roman" font-size="14.00">var.multi&#45;region&#45;deployment</text>
</g>
<!-- [root] aws_instance.back_west (expand)&#45;&gt;[root] var.multi&#45;region&#45;deployment -->
<g id="edge11" class="edge">
<title>[root] aws_instance.back_west (expand)&#45;&gt;[root] var.multi&#45;region&#45;deployment</title>
<path fill="none" stroke="black" d="M1641.32,-156.49C1763.5,-149.36 1999.01,-133.71 2209.7,-108"/>
<polygon fill="black" stroke="black" points="2210.22,-111.46 2219.72,-106.77 2209.37,-104.52 2210.22,-111.46"/>
</g>
<!-- [root] local.backend_west_name (expand) -->
<g id="node17" class="node">
<title>[root] local.backend_west_name (expand)</title>
<ellipse fill="none" stroke="black" cx="1558.23" cy="-90" rx="174.67" ry="18"/>
<text text-anchor="middle" x="1558.23" y="-86.3" font-family="Times-Roman" font-size="14.00">[root] local.backend_west_name (expand)</text>
</g>
<!-- [root] aws_instance.back_west (expand)&#45;&gt;[root] local.backend_west_name (expand) -->
<g id="edge8" class="edge">
<title>[root] aws_instance.back_west (expand)&#45;&gt;[root] local.backend_west_name (expand)</title>
<path fill="none" stroke="black" d="M1558.23,-143.7C1558.23,-135.98 1558.23,-126.71 1558.23,-118.11"/>
<polygon fill="black" stroke="black" points="1561.73,-118.1 1558.23,-108.1 1554.73,-118.1 1561.73,-118.1"/>
</g>
<!-- [root] aws_instance.front_east (expand) -->
<g id="node3" class="node">
<title>[root] aws_instance.front_east (expand)</title>
<polygon fill="none" stroke="black" points="600.23,-252 438.23,-252 438.23,-216 600.23,-216 600.23,-252"/>
<text text-anchor="middle" x="519.23" y="-230.3" font-family="Times-Roman" font-size="14.00">aws_instance.front_east</text>
</g>
<!-- [root] aws_instance.front_east (expand)&#45;&gt;[root] aws_instance.back_east (expand) -->
<g id="edge12" class="edge">
<title>[root] aws_instance.front_east (expand)&#45;&gt;[root] aws_instance.back_east (expand)</title>
<path fill="none" stroke="black" d="M597.11,-215.97C643.75,-205.76 703.17,-192.76 751.47,-182.2"/>
<polygon fill="black" stroke="black" points="752.27,-185.61 761.29,-180.05 750.77,-178.77 752.27,-185.61"/>
</g>
<!-- [root] local.frontend_east_name (expand) -->
<g id="node18" class="node">
<title>[root] local.frontend_east_name (expand)</title>
<ellipse fill="none" stroke="black" cx="172.23" cy="-162" rx="172.47" ry="18"/>
<text text-anchor="middle" x="172.23" y="-158.3" font-family="Times-Roman" font-size="14.00">[root] local.frontend_east_name (expand)</text>
</g>
<!-- [root] aws_instance.front_east (expand)&#45;&gt;[root] local.frontend_east_name (expand) -->
<g id="edge13" class="edge">
<title>[root] aws_instance.front_east (expand)&#45;&gt;[root] local.frontend_east_name (expand)</title>
<path fill="none" stroke="black" d="M437.88,-216.59C383.76,-205.67 312.78,-191.35 257.81,-180.26"/>
<polygon fill="black" stroke="black" points="258.24,-176.78 247.74,-178.23 256.85,-183.64 258.24,-176.78"/>
</g>
<!-- [root] aws_instance.front_west (expand) -->
<g id="node4" class="node">
<title>[root] aws_instance.front_west (expand)</title>
<polygon fill="none" stroke="black" points="1360.23,-252 1196.23,-252 1196.23,-216 1360.23,-216 1360.23,-252"/>
<text text-anchor="middle" x="1278.23" y="-230.3" font-family="Times-Roman" font-size="14.00">aws_instance.front_west</text>
</g>
<!-- [root] aws_instance.front_west (expand)&#45;&gt;[root] aws_instance.back_west (expand) -->
<g id="edge14" class="edge">
<title>[root] aws_instance.front_west (expand)&#45;&gt;[root] aws_instance.back_west (expand)</title>
<path fill="none" stroke="black" d="M1346.37,-215.97C1386.69,-205.89 1437.9,-193.08 1479.88,-182.59"/>
<polygon fill="black" stroke="black" points="1480.94,-185.93 1489.79,-180.11 1479.24,-179.14 1480.94,-185.93"/>
</g>
<!-- [root] local.frontend_west_name (expand) -->
<g id="node19" class="node">
<title>[root] local.frontend_west_name (expand)</title>
<ellipse fill="none" stroke="black" cx="551.23" cy="-162" rx="173.57" ry="18"/>
<text text-anchor="middle" x="551.23" y="-158.3" font-family="Times-Roman" font-size="14.00">[root] local.frontend_west_name (expand)</text>
</g>
<!-- [root] aws_instance.front_west (expand)&#45;&gt;[root] local.frontend_west_name (expand) -->
<g id="edge15" class="edge">
<title>[root] aws_instance.front_west (expand)&#45;&gt;[root] local.frontend_west_name (expand)</title>
<path fill="none" stroke="black" d="M1195.9,-225.07C1071.16,-213.06 833.04,-190.13 683.73,-175.76"/>
<polygon fill="black" stroke="black" points="683.87,-172.25 673.58,-174.78 683.2,-179.22 683.87,-172.25"/>
</g>
<!-- [root] provider[&quot;registry.terraform.io/hashicorp/aws&quot;] -->
<g id="node9" class="node">
<title>[root] provider[&quot;registry.terraform.io/hashicorp/aws&quot;]</title>
<polygon fill="none" stroke="black" points="729.23,-36 460.95,-18 729.23,0 997.52,-18 729.23,-36"/>
<text text-anchor="middle" x="729.23" y="-14.3" font-family="Times-Roman" font-size="14.00">provider[&quot;registry.terraform.io/hashicorp/aws&quot;]</text>
</g>
<!-- [root] data.aws_ami.myami_east (expand)&#45;&gt;[root] provider[&quot;registry.terraform.io/hashicorp/aws&quot;] -->
<g id="edge16" class="edge">
<title>[root] data.aws_ami.myami_east (expand)&#45;&gt;[root] provider[&quot;registry.terraform.io/hashicorp/aws&quot;]</title>
<path fill="none" stroke="black" d="M679.55,-71.7C687.86,-62.88 698.09,-52.03 707.11,-42.47"/>
<polygon fill="black" stroke="black" points="709.7,-44.82 714.01,-35.14 704.61,-40.02 709.7,-44.82"/>
</g>
<!-- [root] provider[&quot;registry.terraform.io/hashicorp/aws&quot;].myprovider2 -->
<g id="node10" class="node">
<title>[root] provider[&quot;registry.terraform.io/hashicorp/aws&quot;].myprovider2</title>
<polygon fill="none" stroke="black" points="1994.23,-36 1654.06,-18 1994.23,0 2334.41,-18 1994.23,-36"/>
<text text-anchor="middle" x="1994.23" y="-14.3" font-family="Times-Roman" font-size="14.00">provider[&quot;registry.terraform.io/hashicorp/aws&quot;].myprovider2</text>
</g>
<!-- [root] data.aws_ami.myami_west (expand)&#45;&gt;[root] provider[&quot;registry.terraform.io/hashicorp/aws&quot;].myprovider2 -->
<g id="edge17" class="edge">
<title>[root] data.aws_ami.myami_west (expand)&#45;&gt;[root] provider[&quot;registry.terraform.io/hashicorp/aws&quot;].myprovider2</title>
<path fill="none" stroke="black" d="M2082.61,-71.88C2066.48,-62.23 2046.21,-50.1 2029.15,-39.89"/>
<polygon fill="black" stroke="black" points="2030.94,-36.88 2020.56,-34.75 2027.34,-42.89 2030.94,-36.88"/>
</g>
<!-- [root] data.aws_availability_zones.zone_east (expand)&#45;&gt;[root] provider[&quot;registry.terraform.io/hashicorp/aws&quot;] -->
<g id="edge18" class="edge">
<title>[root] data.aws_availability_zones.zone_east (expand)&#45;&gt;[root] provider[&quot;registry.terraform.io/hashicorp/aws&quot;]</title>
<path fill="none" stroke="black" d="M854.63,-71.88C830.03,-61.5 798.64,-48.27 773.42,-37.63"/>
<polygon fill="black" stroke="black" points="774.66,-34.36 764.09,-33.7 771.94,-40.81 774.66,-34.36"/>
</g>
<!-- [root] data.aws_availability_zones.zone_west (expand)&#45;&gt;[root] provider[&quot;registry.terraform.io/hashicorp/aws&quot;].myprovider2 -->
<g id="edge19" class="edge">
<title>[root] data.aws_availability_zones.zone_west (expand)&#45;&gt;[root] provider[&quot;registry.terraform.io/hashicorp/aws&quot;].myprovider2</title>
<path fill="none" stroke="black" d="M1905.86,-71.88C1921.99,-62.23 1942.26,-50.1 1959.32,-39.89"/>
<polygon fill="black" stroke="black" points="1961.12,-42.89 1967.91,-34.75 1957.53,-36.88 1961.12,-42.89"/>
</g>
<!-- [root] var.ec2_instance_name -->
<g id="node12" class="node">
<title>[root] var.ec2_instance_name</title>
<polygon fill="none" stroke="black" points="1742.23,-324 1588.23,-324 1588.23,-288 1748.23,-288 1748.23,-318 1742.23,-324"/>
<polyline fill="none" stroke="black" points="1742.23,-324 1742.23,-318 "/>
<polyline fill="none" stroke="black" points="1748.23,-318 1742.23,-318 "/>
<text text-anchor="middle" x="1668.23" y="-302.3" font-family="Times-Roman" font-size="14.00">var.ec2_instance_name</text>
</g>
<!-- [root] var.project&#45;name -->
<g id="node15" class="node">
<title>[root] var.project&#45;name</title>
<polygon fill="none" stroke="black" points="369.23,-36 257.23,-36 257.23,0 375.23,0 375.23,-30 369.23,-36"/>
<polyline fill="none" stroke="black" points="369.23,-36 369.23,-30 "/>
<polyline fill="none" stroke="black" points="375.23,-30 369.23,-30 "/>
<text text-anchor="middle" x="316.23" y="-14.3" font-family="Times-Roman" font-size="14.00">var.project&#45;name</text>
</g>
<!-- [root] local.backend_east_name (expand)&#45;&gt;[root] var.project&#45;name -->
<g id="edge20" class="edge">
<title>[root] local.backend_east_name (expand)&#45;&gt;[root] var.project&#45;name</title>
<path fill="none" stroke="black" d="M367.02,-72.05C358.83,-63.5 348.74,-52.96 339.72,-43.54"/>
<polygon fill="black" stroke="black" points="342.21,-41.08 332.77,-36.28 337.16,-45.92 342.21,-41.08"/>
</g>
<!-- [root] local.backend_west_name (expand)&#45;&gt;[root] var.project&#45;name -->
<g id="edge21" class="edge">
<title>[root] local.backend_west_name (expand)&#45;&gt;[root] var.project&#45;name</title>
<path fill="none" stroke="black" d="M1437.72,-76.88C1416.9,-75.05 1395.45,-73.33 1375.23,-72 965.59,-45 861.4,-69.49 452.23,-36 430.43,-34.22 406.75,-31.52 385.35,-28.8"/>
<polygon fill="black" stroke="black" points="385.73,-25.32 375.37,-27.51 384.83,-32.26 385.73,-25.32"/>
</g>
<!-- [root] local.frontend_east_name (expand)&#45;&gt;[root] var.project&#45;name -->
<g id="edge22" class="edge">
<title>[root] local.frontend_east_name (expand)&#45;&gt;[root] var.project&#45;name</title>
<path fill="none" stroke="black" d="M165.73,-143.87C159.6,-124.56 153.36,-93.12 168.23,-72 186.23,-46.44 217.76,-33.14 247.1,-26.25"/>
<polygon fill="black" stroke="black" points="247.89,-29.66 256.94,-24.15 246.43,-22.81 247.89,-29.66"/>
</g>
<!-- [root] local.frontend_west_name (expand)&#45;&gt;[root] var.project&#45;name -->
<g id="edge23" class="edge">
<title>[root] local.frontend_west_name (expand)&#45;&gt;[root] var.project&#45;name</title>
<path fill="none" stroke="black" d="M423.88,-149.77C329.95,-140.16 216.01,-125.18 201.23,-108 190.8,-95.87 192.61,-85.47 201.23,-72 211.93,-55.29 229.39,-43.77 247.5,-35.87"/>
<polygon fill="black" stroke="black" points="249.02,-39.03 257,-32.05 246.41,-32.53 249.02,-39.03"/>
</g>
<!-- [root] output.public_ips_east (expand) -->
<g id="node20" class="node">
<title>[root] output.public_ips_east (expand)</title>
<ellipse fill="none" stroke="black" cx="310.23" cy="-306" rx="157.87" ry="18"/>
<text text-anchor="middle" x="310.23" y="-302.3" font-family="Times-Roman" font-size="14.00">[root] output.public_ips_east (expand)</text>
</g>
<!-- [root] output.public_ips_east (expand)&#45;&gt;[root] aws_instance.front_east (expand) -->
<g id="edge24" class="edge">
<title>[root] output.public_ips_east (expand)&#45;&gt;[root] aws_instance.front_east (expand)</title>
<path fill="none" stroke="black" d="M358.45,-288.85C388.27,-278.86 426.82,-265.95 458.69,-255.28"/>
<polygon fill="black" stroke="black" points="459.98,-258.54 468.35,-252.04 457.76,-251.9 459.98,-258.54"/>
</g>
<!-- [root] provider[&quot;registry.terraform.io/hashicorp/aws&quot;] (close) -->
<g id="node21" class="node">
<title>[root] provider[&quot;registry.terraform.io/hashicorp/aws&quot;] (close)</title>
<ellipse fill="none" stroke="black" cx="727.23" cy="-306" rx="241.26" ry="18"/>
<text text-anchor="middle" x="727.23" y="-302.3" font-family="Times-Roman" font-size="14.00">[root] provider[&quot;registry.terraform.io/hashicorp/aws&quot;] (close)</text>
</g>
<!-- [root] provider[&quot;registry.terraform.io/hashicorp/aws&quot;] (close)&#45;&gt;[root] aws_instance.front_east (expand) -->
<g id="edge25" class="edge">
<title>[root] provider[&quot;registry.terraform.io/hashicorp/aws&quot;] (close)&#45;&gt;[root] aws_instance.front_east (expand)</title>
<path fill="none" stroke="black" d="M677.68,-288.32C648.29,-278.43 610.84,-265.83 579.72,-255.36"/>
<polygon fill="black" stroke="black" points="580.45,-251.91 569.86,-252.04 578.22,-258.54 580.45,-251.91"/>
</g>
<!-- [root] provider[&quot;registry.terraform.io/hashicorp/aws&quot;].myprovider2 (close) -->
<g id="node22" class="node">
<title>[root] provider[&quot;registry.terraform.io/hashicorp/aws&quot;].myprovider2 (close)</title>
<ellipse fill="none" stroke="black" cx="1278.23" cy="-306" rx="291.65" ry="18"/>
<text text-anchor="middle" x="1278.23" y="-302.3" font-family="Times-Roman" font-size="14.00">[root] provider[&quot;registry.terraform.io/hashicorp/aws&quot;].myprovider2 (close)</text>
</g>
<!-- [root] provider[&quot;registry.terraform.io/hashicorp/aws&quot;].myprovider2 (close)&#45;&gt;[root] aws_instance.front_west (expand) -->
<g id="edge26" class="edge">
<title>[root] provider[&quot;registry.terraform.io/hashicorp/aws&quot;].myprovider2 (close)&#45;&gt;[root] aws_instance.front_west (expand)</title>
<path fill="none" stroke="black" d="M1278.23,-287.7C1278.23,-279.98 1278.23,-270.71 1278.23,-262.11"/>
<polygon fill="black" stroke="black" points="1281.73,-262.1 1278.23,-252.1 1274.73,-262.1 1281.73,-262.1"/>
</g>
<!-- [root] root -->
<g id="node23" class="node">
<title>[root] root</title>
<ellipse fill="none" stroke="black" cx="1002.23" cy="-378" rx="48.19" ry="18"/>
<text text-anchor="middle" x="1002.23" y="-374.3" font-family="Times-Roman" font-size="14.00">[root] root</text>
</g>
<!-- [root] root&#45;&gt;[root] var.ec2_instance_name -->
<g id="edge30" class="edge">
<title>[root] root&#45;&gt;[root] var.ec2_instance_name</title>
<path fill="none" stroke="black" d="M1049.53,-374.22C1146.66,-368.17 1375.73,-352.16 1577.56,-324.16"/>
<polygon fill="black" stroke="black" points="1578.34,-327.59 1587.76,-322.73 1577.37,-320.65 1578.34,-327.59"/>
</g>
<!-- [root] root&#45;&gt;[root] output.public_ips_east (expand) -->
<g id="edge27" class="edge">
<title>[root] root&#45;&gt;[root] output.public_ips_east (expand)</title>
<path fill="none" stroke="black" d="M956.24,-372.37C864.92,-363.17 654.28,-341.95 477.23,-324 463.22,-322.58 448.54,-321.09 433.95,-319.61"/>
<polygon fill="black" stroke="black" points="434.17,-316.11 423.87,-318.58 433.47,-323.07 434.17,-316.11"/>
</g>
<!-- [root] root&#45;&gt;[root] provider[&quot;registry.terraform.io/hashicorp/aws&quot;] (close) -->
<g id="edge28" class="edge">
<title>[root] root&#45;&gt;[root] provider[&quot;registry.terraform.io/hashicorp/aws&quot;] (close)</title>
<path fill="none" stroke="black" d="M963.71,-367.19C921.84,-356.54 853.92,-339.25 801.59,-325.93"/>
<polygon fill="black" stroke="black" points="802.24,-322.48 791.68,-323.4 800.51,-329.26 802.24,-322.48"/>
</g>
<!-- [root] root&#45;&gt;[root] provider[&quot;registry.terraform.io/hashicorp/aws&quot;].myprovider2 (close) -->
<g id="edge29" class="edge">
<title>[root] root&#45;&gt;[root] provider[&quot;registry.terraform.io/hashicorp/aws&quot;].myprovider2 (close)</title>
<path fill="none" stroke="black" d="M1040.9,-367.19C1082.71,-356.59 1150.41,-339.42 1202.82,-326.13"/>
<polygon fill="black" stroke="black" points="1203.92,-329.46 1212.75,-323.61 1202.2,-322.67 1203.92,-329.46"/>
</g>
</g>
</svg>
